# xmcd
#
# Track frame offsets:
#	150
#	11243
#	33595
#	55402
#	70091
#	88704
#	104935
#	119879
#	161758
#	172350
#	200349
#	218386
#	230131
#	240938
#	249344
#	259838
#	270311
#
# Disc length: 3830 seconds
#
# Revision: 1
# Processed by: cddbd v1.5.2PL0 Copyright (c) Steve Scherf et al.
# Submitted via: audiograbber 1.83.01
#
DISCID=fd0ef411
DTITLE=Various Artist - Kings of Blues
DYEAR=2007
DGENRE=Blues
TTITLE0=John Lee Hooker - Boom boom
TTITLE1=Blind Boys Of Alabama - Getting better (all the time)
TTITLE2=R.L. Burnside - Everything is broken
TTITLE3=Luther Allison with Marla Glen - Just as I am
TTITLE4=Darondo - I want your love so bad
TTITLE5=Orgone - Who knows who
TTITLE6=Eugene Blacknell - Jive kinda friends
TTITLE7=Johnny Lewis - Willow weep for me
TTITLE8=Barbara Lynn - I'm a good woman
TTITLE9=Ivan Boogaloo Joe Jones - Trouble in my mind
TTITLE10=Lightning Slim - Hoodoo blues
TTITLE11=T-Bone Walker - T-Bone is back
TTITLE12=Earl King - Those lonely lonely nights
TTITLE13=Mac Rebben Ack (Dr. John) - Foolish little girl
TTITLE14=Elmore James Jr - Bad feeling
TTITLE15=Lightnin' Hopkins - Bad boogie
TTITLE16=Marianne Faithful - It's all over now, baby blue
EXTD=
EXTT0=
EXTT1=
EXTT2=
EXTT3=
EXTT4=
EXTT5=
EXTT6=
EXTT7=
EXTT8=
EXTT9=
EXTT10=
EXTT11=
EXTT12=
EXTT13=
EXTT14=
EXTT15=
EXTT16=
PLAYORDER=
